<svg xmlns="http://www.w3.org/2000/svg" viewBox="0 0 360 148">
  <path fill="#6772E5" d="M359.3 53.6c0-21.5-16.7-33-39.7-33-24.1 0-41.9 14.5-41.9 39.5 0 35.8 45.4 33.7 45.4 46.4 0 5-5.5 8.1-13.6 8.1-12.8 0-26.6-4.9-38-12.7l-5.8 28.1c11.3 7 28.4 11 44.5 11 25.1 0 42.4-14 42.4-39.2 0-36.2-45.7-34.9-45.7-47 0-4.6 4.9-7.8 12.8-7.8 11.2 0 22.9 3.5 32.5 9.6l5.6-26zm-91.8 86c0-2.3.2-5 .4-7.5l-6-4.6c-4.4 6.7-18.7 13.9-33.8 13.9-22 0-34.6-13.1-34.6-35.3 0-21.6 15.6-35 34-35 15.8 0 26 5.5 29.8 12.6V26.2L288 20v119h-20.5v-.4zm-22.1-49c0-8.1-5.7-13.6-14.4-13.6-12.3 0-22.3 9.4-22.3 22.8 0 8.4 6.1 13.6 14.3 13.6 12.4-.1 22.4-9.3 22.4-22.8zm-54.7-17h-21V28.2l-30.4 6.4v39H118v27h21.3v39.3c0 14.8 9.3 22 25.7 22 10.3 0 17.6-2 23-4.8v-26.6c-4.2 1.5-8.5 2.1-13.3 2.1-7.2 0-11-2.9-11-10.3V101h24V73.6zm-127.3.2v-24H33V140h30.4V94.3c0-11.4 8.7-22 23.3-22 12.2 0 16 3.6 16 11.5V140h30.5V74c0-19.1-10-27-26.4-27-14.8 0-25 7-30.2 16h-.6V73.8h-32.6z"/>
</svg>
